<svg id="Layer_1" data-name="Layer 1" xmlns="http://www.w3.org/2000/svg" viewBox="0 0 35.46 28.56"><defs><style>.cls-1{font-size:12px;font-family:MyriadPro-Regular, Myriad Pro;}.cls-1,.cls-3{fill:#fff;}.cls-2{letter-spacing:0em;}</style></defs><title>Untitled-2</title><text class="cls-1" transform="translate(0 11.16)"><tspan class="cls-2">D</tspan><tspan x="8.04" y="0">el </tspan><tspan x="0" y="14.4">Shop</tspan></text><path class="cls-3" d="M31.79,25.33h0v0H43a.6.6,0,0,0,.59-.34l2.48-6.56a.36.36,0,0,0-.1-.41.74.74,0,0,0-.49-.18H30.37l-.45-1.5a.59.59,0,0,0-.6-.37H25.63a.61.61,0,0,0-.63.41c0,.29.25.52.62.52h3.21c.07.27,2.11,7.19,2.22,7.59a1.42,1.42,0,0,0-1.11,1.37,1.74,1.74,0,0,0,1.88,1.31H43a.61.61,0,0,0,.63-.41c0-.29-.25-.52-.62-.52H31.81a.59.59,0,0,1-.63-.42C31.13,25.57,31.43,25.33,31.79,25.33ZM44.63,18.8l-2.11,5.6H32.29l-1.65-5.6Z" transform="translate(-10.61 -16)"/><path class="cls-3" d="M31.17,28.6A1.68,1.68,0,0,0,33,30c1,0,1.86-.63,1.86-1.4s-.83-1.4-1.86-1.4A1.68,1.68,0,0,0,31.17,28.6ZM33,28.13c.35,0,.62.21.62.47s-.27.47-.62.47a.49.49,0,1,1,0-.94Z" transform="translate(-10.61 -16)"/><path class="cls-3" d="M39.9,28.6a1.92,1.92,0,0,0,3.7,0,1.92,1.92,0,0,0-3.7,0Zm1.85-.47a.49.49,0,1,1-.62.47A.56.56,0,0,1,41.75,28.13Z" transform="translate(-10.61 -16)"/></svg>