<svg id="Layer_1" data-name="Layer 1" xmlns="http://www.w3.org/2000/svg" viewBox="0 0 64.15 27.44"><defs><style>.cls-1{font-size:12px;font-family:MyriadPro-Regular, Myriad Pro;}.cls-1,.cls-6{fill:#fff;}.cls-2{letter-spacing:0em;}.cls-3{letter-spacing:0em;}.cls-4{letter-spacing:-0.01em;}.cls-5{letter-spacing:0em;}</style></defs><title>Untitled-1</title><text class="cls-1" transform="translate(0 10.04)"><tspan class="cls-2">D<tspan class="cls-3" x="8.04" y="0">el </tspan><tspan class="cls-4" x="19.43" y="0">f</tspan><tspan class="cls-3" x="22.78" y="0">or</tspan></tspan><tspan class="cls-5" x="0" y="14.4">A</tspan><tspan x="7.31" y="14.4">nimals</tspan></text><path class="cls-6" d="M74.87,19.43a.45.45,0,1,0,0,.9.45.45,0,1,0,0-.9Z" transform="translate(-13.47 -12.19)"/><path class="cls-6" d="M75,35.12a3.37,3.37,0,0,0-.74-.3v-.73a.33.33,0,0,0-.31-.32.33.33,0,0,0-.38.3v1a.32.32,0,0,0,.27.3,3.14,3.14,0,0,1,.82.3,1.36,1.36,0,0,1,.68.71H73.16a.71.71,0,0,1-.67-.41l-2-5a.35.35,0,0,0-.45-.18.3.3,0,0,0-.19.39,3.43,3.43,0,0,1,.21,1.22,2,2,0,0,1-1.52,1.9,7.24,7.24,0,0,1-2.28.41.33.33,0,0,0-.34.26.31.31,0,0,0,.34.34H69a1.7,1.7,0,0,1,1.21.38,1.31,1.31,0,0,1,.37.69H63.17a2.2,2.2,0,0,1-1.52-.6.43.43,0,0,0-.22-.09,6.39,6.39,0,0,1-5.59-5.1.34.34,0,0,0-.4-.24.3.3,0,0,0-.27.35,6.93,6.93,0,0,0,2.32,3.95,6.75,6.75,0,0,0,3.76,1.65,3,3,0,0,0,1.92.7H70.9a.35.35,0,0,0,.35-.29,2,2,0,0,0-.57-1.45,2.35,2.35,0,0,0-1.52-.58,2.66,2.66,0,0,0,1.47-1.58l1.21,3.07a1.42,1.42,0,0,0,1.32.83h2.56a.33.33,0,0,0,.35-.31A1.79,1.79,0,0,0,75,35.12Z" transform="translate(-13.47 -12.19)"/><path class="cls-6" d="M55.7,29.41a5.11,5.11,0,0,1,2.07-4.55,6.89,6.89,0,0,1,2.71-1.2A.41.41,0,0,1,61,24a.36.36,0,0,1-.33.41,6.24,6.24,0,0,0-2.39,1.08,4.59,4.59,0,0,0-1.65,4.8A4.72,4.72,0,0,0,59.79,34c.2.07.44.19.63.05a.3.3,0,0,0,.11-.3,5.1,5.1,0,0,1,3.24-6A12.06,12.06,0,0,0,66,26.71a.29.29,0,0,0,.09-.43.37.37,0,0,0-.48-.07,12.47,12.47,0,0,1-2.07,1,5.67,5.67,0,0,0-3.74,6.08,4,4,0,0,1-2.5-3.13,4.07,4.07,0,0,1,1.41-4.24A5.61,5.61,0,0,1,60.75,25a1,1,0,0,0,.87-1.14,1.1,1.1,0,0,0-1.27-.78,8.11,8.11,0,0,0-3,1.33A5.7,5.7,0,0,0,55,29.43a.33.33,0,0,0,.35.3A.34.34,0,0,0,55.7,29.41Z" transform="translate(-13.47 -12.19)"/><path class="cls-6" d="M77.62,20.64v-.06a1,1,0,0,0-.14-.34h0c-.18-.3-1.33-1.65-1.4-1.74-.29-.36-1.87-.61-1.87-.61V16.31a.34.34,0,0,0-.4-.31,4,4,0,0,0-2.91,2.19,3.48,3.48,0,0,0-2,2.34c-.06.24-.12.51-.17.79a6.6,6.6,0,0,1-2.11,4.12.29.29,0,0,0,0,.44.38.38,0,0,0,.49,0,6.77,6.77,0,0,0,1.39-1.69,10.1,10.1,0,0,0,5.32,1.49h.28c.08.14.16.26.22.35l0,.06a4,4,0,0,1-.7,4.93.32.32,0,0,0-.08.2v1.57a.32.32,0,0,0,.3.32.33.33,0,0,0,.39-.3V31.38s1.4-2.24,1.34-3.49A4.59,4.59,0,0,0,75,25.8l0-.06c-.2-.31-.7-1.09-.58-1.6h0a.34.34,0,0,1,0-.14c.11-.21.39-.34.83-.41a2.57,2.57,0,0,0,2.11-1.49A4.11,4.11,0,0,0,77.62,20.64Zm-8.86,3a7.56,7.56,0,0,0,.29-.78,7.79,7.79,0,0,0,4.58,1.52,2.29,2.29,0,0,0,.17.72A9.43,9.43,0,0,1,68.76,23.62ZM75.09,23a1.65,1.65,0,0,0-1.34.76v0a8.23,8.23,0,0,1-3.5-.88,4.66,4.66,0,0,1-1-.74c.06-.25.11-.49.15-.71s.11-.54.17-.76a2.8,2.8,0,0,1,1.72-2,.33.33,0,0,0,.22-.21,3,3,0,0,1,2-1.8v1.49a.32.32,0,0,0,.32.3,4.18,4.18,0,0,1,1.65.39l.38.44c.21.24.61.7.85,1a.63.63,0,0,0-.1.32.56.56,0,0,0,.27.48A2,2,0,0,1,75.09,23Z" transform="translate(-13.47 -12.19)"/></svg>